<?xml version="1.0" encoding="iso-8859-1"?>
<!-- Generator: Adobe Illustrator 19.0.0, SVG Export Plug-In . SVG Version: 6.00 Build 0)  -->
<svg xmlns="http://www.w3.org/2000/svg" xmlns:xlink="http://www.w3.org/1999/xlink" version="1.1" id="Layer_1" x="0px" y="0px" viewBox="0 0 512 512" style="enable-background:new 0 0 512 512;" xml:space="preserve" width="512" height="512">
<g>
	<path style="fill:#3D5168;" d="M512,308.297V203.703l-46.311-9.262c-4.395-15.004-10.386-29.466-17.889-43.182L474,111.96   L400.04,38l-39.299,26.2c-13.716-7.504-28.176-13.494-43.182-17.89L308.297,0H256l-60,256l60,256h52.297l9.262-46.311   c15.004-4.395,29.466-10.386,43.182-17.889l39.299,26.199L474,400.04l-26.2-39.299c7.503-13.715,13.495-28.177,17.889-43.181   L512,308.297z"/>
	<path style="fill:#57697D;" d="M203.703,0l-9.262,46.311c-15.006,4.396-29.466,10.386-43.182,17.89L111.96,38L38,111.96   l26.2,39.299c-7.504,13.716-13.494,28.176-17.89,43.182L0,203.703v104.594l46.311,9.262c4.395,15.006,10.385,29.466,17.889,43.182   L38,400.04l73.96,73.959l39.299-26.199c13.715,7.503,28.178,13.495,43.182,17.889L203.703,512H256V0H203.703z"/>
	<path style="fill:#BFDCFF;" d="M414.5,256c0,34.941-11.315,67.234-30.468,93.435H186L256,97.5   C343.537,97.5,414.5,168.463,414.5,256z"/>
	<path style="fill:#FFFFFF;" d="M97.5,256c0,34.941,11.315,67.234,30.468,93.435H256V97.5C168.463,97.5,97.5,168.463,97.5,256z"/>
	<path style="fill:#1E8AFF;" d="M181,317.5c-22.996,0-42.96,12.942-53.032,31.934c13.956,19.092,32.082,34.936,53.032,46.211   l30-39.073L181,317.5z"/>
	<path style="fill:#1A64B6;" d="M331,317.5c22.996,0,42.96,12.942,53.032,31.934C370.075,368.526,351.95,384.37,331,395.645   l-30-39.073L331,317.5z"/>
	<path style="fill:#1E8AFF;" d="M256,414.5c27.133,0,52.671-6.823,75-18.84V317.5h-75L226,366L256,414.5z"/>
	<path style="fill:#54A5FF;" d="M181,317.5v78.16c22.329,12.016,47.867,18.84,75,18.84v-97H181z"/>
	<path style="fill:#FF9E90;" d="M256,157.5l-32.5,65l32.5,65c35.899,0,65-29.102,65-65S291.899,157.5,256,157.5z"/>
	<path style="fill:#FFB4B3;" d="M191,222.5c0,35.898,29.101,65,65,65v-130C220.101,157.5,191,186.602,191,222.5z"/>
</g>















</svg>
