<?xml version="1.0" encoding="iso-8859-1"?>
<!-- Generator: Adobe Illustrator 19.0.0, SVG Export Plug-In . SVG Version: 6.00 Build 0)  -->
<svg xmlns="http://www.w3.org/2000/svg" xmlns:xlink="http://www.w3.org/1999/xlink" version="1.1" id="Layer_1" x="0px" y="0px" viewBox="0 0 512 512" style="enable-background:new 0 0 512 512;" xml:space="preserve" width="512" height="512">
<g>
	<path d="M256,157.5c-35.841,0-65,29.159-65,65s29.159,65,65,65s65-29.159,65-65S291.841,157.5,256,157.5z M256,257.5   c-19.299,0-35-15.701-35-35s15.701-35,35-35s35,15.701,35,35S275.299,257.5,256,257.5z"/>
	<path d="M256,97.5c-87.397,0-158.5,71.103-158.5,158.5S168.603,414.5,256,414.5S414.5,343.397,414.5,256S343.397,97.5,256,97.5z    M172.88,353.911c6.915-4.15,14.885-6.411,23.119-6.411h120c8.235,0,16.205,2.261,23.121,6.412   C316.695,372.977,287.67,384.5,256,384.5C224.33,384.5,195.304,372.977,172.88,353.911z M359.795,331.661   c-12.649-9.114-27.921-14.161-43.796-14.161h-120c-15.875,0-31.146,5.047-43.794,14.16C136.68,310.421,127.5,284.264,127.5,256   c0-70.855,57.645-128.5,128.5-128.5S384.5,185.145,384.5,256C384.5,284.265,375.32,310.421,359.795,331.661z"/>
	<path d="M512,308.297V203.703l-46.311-9.262c-4.395-15.004-10.386-29.466-17.889-43.182L474,111.96L400.04,38l-39.299,26.2   c-13.716-7.504-28.176-13.494-43.182-17.89L308.297,0H203.703l-9.262,46.311c-15.006,4.396-29.466,10.386-43.182,17.89L111.96,38   L38,111.96l26.2,39.299c-7.504,13.716-13.494,28.176-17.89,43.182L0,203.703v104.594l46.311,9.262   c4.395,15.006,10.385,29.466,17.889,43.182L38,400.04l73.96,73.959l39.299-26.199c13.715,7.503,28.178,13.495,43.182,17.889   L203.703,512h104.594l9.262-46.311c15.004-4.395,29.466-10.386,43.182-17.889l39.299,26.199L474,400.04l-26.2-39.299   c7.503-13.715,13.495-28.177,17.889-43.181L512,308.297z M441.332,291.836l-2.273,9.262c-4.543,18.506-11.854,36.152-21.729,52.447   l-4.944,8.158l23.009,34.514l-39.178,39.178l-34.513-23.009l-8.158,4.944c-16.296,9.875-33.942,17.186-52.448,21.729l-9.262,2.273   L283.703,482h-55.406l-8.133-40.668l-9.262-2.273c-18.506-4.543-36.152-11.854-52.448-21.729l-8.158-4.944l-34.513,23.009   l-39.178-39.178l23.009-34.514l-4.944-8.158c-9.875-16.294-17.186-33.939-21.729-52.447l-2.273-9.262L30,283.703v-55.406   l40.668-8.133l2.273-9.262c4.543-18.507,11.854-36.153,21.729-52.447l4.944-8.158l-23.009-34.513l39.178-39.178l34.513,23.009   l8.158-4.944c16.294-9.875,33.94-17.186,52.447-21.729l9.262-2.273L228.297,30h55.406l8.133,40.668l9.262,2.273   c18.507,4.543,36.153,11.854,52.447,21.729l8.158,4.944l34.513-23.009l39.178,39.178l-23.009,34.513l4.944,8.158   c9.875,16.296,17.186,33.942,21.729,52.448l2.273,9.262L482,228.297v55.406L441.332,291.836z"/>
</g>















</svg>
